<svg xmlns="http://www.w3.org/2000/svg" version="1.1" xmlns:xlink="http://www.w3.org/1999/xlink" xmlns:svgjs="http://svgjs.com/svgjs" width="1440" height="560" preserveAspectRatio="none" viewBox="0 0 1440 560"><g mask="url(&quot;#SvgjsMask1018&quot;)" fill="none"><rect width="1440" height="560" x="0" y="0" fill="rgba(163, 26, 203, 1)"></rect><path d="M598.118279531354 361.06804996997573L705.2734514674481 264.58509979128615 608.7905012887585 157.4299278551921 501.6353293526644 253.91287803388167z" fill="rgba(142, 30, 181, 1)" class="triangle-float1"></path><path d="M136.16320960297656 371.12807207805827L70.67447133382589 236.85626042463753 1.8913979495558237 436.6168103472089z" fill="rgba(142, 30, 181, 1)" class="triangle-float1"></path><path d="M654.9088220751862 403.1636279436537L580.9398895713626 257.9914239306482 509.7366180621807 477.13256044747726z" fill="rgba(142, 30, 181, 1)" class="triangle-float1"></path><path d="M314.70814332205265 456.38290539947485L344.63088231420363 326.77328336247103 185.09852128504886 426.46016640732387z" fill="rgba(142, 30, 181, 1)" class="triangle-float1"></path><path d="M54.79340089989681 242.58237739705083L-59.38766737484855 258.62948003959434 70.8405035424403 356.7634456717962z" fill="rgba(142, 30, 181, 1)" class="triangle-float2"></path><path d="M1287.8150070188663 391.52892702528254L1198.1606846296254 321.48329358836935 1128.1150511927124 411.1376159776101 1217.769373581953 481.1832494145233z" fill="rgba(142, 30, 181, 1)" class="triangle-float2"></path><path d="M594.83 443.15 a174.99 174.99 0 1 0 349.98 0 a174.99 174.99 0 1 0 -349.98 0z" fill="rgba(142, 30, 181, 1)" class="triangle-float2"></path><path d="M585.70877916547 565.1208180789549L580.7908407465238 471.2809628852143 442.490027165386 525.5777981105039z" fill="rgba(142, 30, 181, 1)" class="triangle-float2"></path><path d="M524.8097664514468 227.3590706681032L581.4217283402229 125.45753926830618 479.5201969404259 125.45753926830619z" fill="rgba(142, 30, 181, 1)" class="triangle-float3"></path><path d="M793.88 37.71 a143.53 143.53 0 1 0 287.06 0 a143.53 143.53 0 1 0 -287.06 0z" fill="rgba(142, 30, 181, 1)" class="triangle-float2"></path><path d="M801.7291196167907 524.249240584126L703.9229952136229 463.13319101555555 642.8069456450526 560.9393154187233 740.6130700482203 622.0553649872938z" fill="rgba(142, 30, 181, 1)" class="triangle-float3"></path><path d="M944.95 29.83 a174.27 174.27 0 1 0 348.54 0 a174.27 174.27 0 1 0 -348.54 0z" fill="rgba(142, 30, 181, 1)" class="triangle-float2"></path></g><defs><mask id="SvgjsMask1018"><rect width="1440" height="560" fill="#ffffff"></rect></mask><style>
            @keyframes float1 {
                0%{transform: translate(0, 0)}
                50%{transform: translate(-10px, 0)}
                100%{transform: translate(0, 0)}
            }

            .triangle-float1 {
                animation: float1 5s infinite;
            }

            @keyframes float2 {
                0%{transform: translate(0, 0)}
                50%{transform: translate(-5px, -5px)}
                100%{transform: translate(0, 0)}
            }

            .triangle-float2 {
                animation: float2 4s infinite;
            }

            @keyframes float3 {
                0%{transform: translate(0, 0)}
                50%{transform: translate(0, -10px)}
                100%{transform: translate(0, 0)}
            }

            .triangle-float3 {
                animation: float3 6s infinite;
            }
        </style></defs></svg>