<svg xmlns="http://www.w3.org/2000/svg" version="1.1" xmlns:xlink="http://www.w3.org/1999/xlink" xmlns:svgjs="http://svgjs.com/svgjs" width="1440" height="560" preserveAspectRatio="none" viewBox="0 0 1440 560"><g mask="url(&quot;#SvgjsMask1001&quot;)" fill="none"><rect width="1440" height="560" x="0" y="0" fill="rgba(163, 26, 203, 1)"></rect><path d="M0,485.515C89.533,475.734,126.863,363.989,202.257,314.718C276.786,266.012,388.141,273.934,437.324,199.719C487.23,124.413,465.846,24.285,454.093,-65.289C442.214,-155.821,424.819,-247.495,369.148,-319.868C311.688,-394.567,228.742,-444.728,139.325,-474.496C47.687,-505.003,-50.359,-514.025,-144.091,-490.731C-240.283,-466.826,-330.619,-417.623,-394.498,-341.835C-457.921,-266.588,-483.374,-168.921,-497.431,-71.52C-511.494,25.921,-526.422,132.948,-475.148,216.993C-425.083,299.055,-316.487,314.948,-232.799,362.243C-154.774,406.338,-89.093,495.247,0,485.515" fill="#8215a2"></path><path d="M1440 975.729C1518.699 967.079 1597.52 951.329 1661.68 904.941 1723.912 859.948 1749.1109999999999 784.363 1792.408 720.939 1846.167 642.189 1954.01 582.202 1946.91 487.117 1939.893 393.142 1830.416 345.26800000000003 1759.704 282.975 1698.318 228.89800000000002 1638.013 175.39499999999998 1561.177 147.30900000000003 1480.537 117.83300000000003 1394.462 101.10199999999998 1310.439 118.75599999999997 1222.509 137.231 1136.497 178.21300000000002 1080.324 248.339 1025.026 317.373 1009.688 409.32 1006.875 497.726 1004.271 579.565 1035.425 654.908 1064.9569999999999 731.277 1096.348 812.453 1111.709 909.851 1184.622 957.376 1257.599 1004.942 1353.411 985.246 1440 975.729" fill="#bb2fe4"></path></g><defs><mask id="SvgjsMask1001"><rect width="1440" height="560" fill="#ffffff"></rect></mask></defs></svg>